Simulation
nRows=15
nColumns=15
endheader
time  TH_x TH_y TH_z SC_y  SC_z  SC_x  AC_y  AC_z  AC_x  GH_y  GH_z  GH_yy  EL_x  PS_y
1.5899999999999999  0.000000  0.000000  0.000000  -42.42620173048469  8.393252441544554  18.215482661579127  57.531427998059634  14.002749242738789  7.740692632531721  -45.20233124051172  46.43999669761791  18.79253526116149  22.35444140940002  120.000000
1.6217999999999997  0.000000  0.000000  0.000000  -42.54553398512875  8.448510290149116  18.75306561927599  57.60173732214754  14.252538697104248  7.895166044134533  -45.50022209242146  47.02893274231434  18.692597327189873  22.411450563555647  120.000000
1.6535999999999997  0.000000  0.000000  0.000000  -42.63058788948497  8.504276281756246  19.242584916309333  57.638224156303465  14.434945463883912  8.018423942825873  -45.75635967148248  47.48190177324814  18.713834078621932  22.438134834205258  120.000000
1.6853999999999998  0.000000  0.000000  0.000000  -42.68972157492219  8.55045001158639  19.685216973119747  57.65452696732041  14.561498506713544  8.105496842464579  -45.98455813419262  47.79326407611127  18.820221325163168  22.45562443632062  120.000000
1.7171999999999996  0.000000  0.000000  0.000000  -42.728422105871644  8.578169591688274  20.078997285543295  57.66183506605109  14.64336846258152  8.152642510942616  -46.194108632588595  47.961406260082455  18.98603181090271  22.475131035793158  120.000000
1.7489999999999997  0.000000  0.000000  0.000000  -42.749960386505926  8.58083369209747  20.418257261987584  57.66829685219255  14.689559697073072  8.157326259315878  -46.38749440489538  47.98808237151281  19.19685964682181  22.496904560456805  120.000000
1.7807999999999997  0.000000  0.000000  0.000000  -42.75651561000974  8.554630456594449  20.694067383850882  57.679182089431  14.70632870771744  8.118154427725486  -46.55970255473524  47.87664416166498  19.447153415271693  22.512920881145387  120.000000
1.8125999999999998  0.000000  0.000000  0.000000  -42.749720348062354  8.498946312431189  20.895251467094862  57.696535206631886  14.696925768551473  8.035160341612082  -46.69895642200291  47.63082291838396  19.734990792259005  22.511324287251465  120.000000
1.8443999999999998  0.000000  0.000000  0.000000  -42.73089939448735  8.416535873503799  21.00962893821571  57.719245849300044  14.661735490401789  7.910034708957588  -46.788356615805725  47.2533315106829  20.0565942136022  22.480880003598603  120.000000
1.8761999999999996  0.000000  0.000000  0.000000  -42.70067413333765  8.313465312031761  21.025121538305857  57.74256784149711  14.598099419302615  7.74639806067841  -46.80774893140877  46.74571455491423  20.402232788386225  22.414293852534  120.000000
1.9079999999999997  0.000000  0.000000  0.000000  -42.65853934026851  8.198497754102599  20.930874238005288  57.75851498063994  14.50053055073188  7.549702347367837  -46.73598871246006  46.10832602848724  20.754942434243837  22.309713768099126  120.000000
1.9397999999999997  0.000000  0.000000  0.000000  -42.602268008096495  8.081980578642948  20.718328263364814  57.75616951810351  14.361062677176244  7.327046088891031  -46.55306325270097  45.34155290742188  21.092183049539177  22.170080056885812  120.000000
1.9715999999999996  0.000000  0.000000  0.000000  -42.52766036913979  7.974301394549194  20.382510545551952  57.72299618091924  14.170420974979844  7.0865558787266965  -46.242418332839094  44.44674678709056  21.389985984344207  22.001253546020617  120.000000
2.0033999999999996  0.000000  0.000000  0.000000  -42.428248275836054  7.884410658846128  19.923318731620892  57.64582746776424  13.919570593078618  6.8368779197038965  -45.79328721654847  43.42751632023769  21.627636123856323  21.80980516971309  120.000000
2.0351999999999997  0.000000  0.000000  0.000000  -42.295515341394044  7.818604258122132  19.34647159238855  57.5126532055393  13.601694733898361  6.586171974833521  -45.202378305298794  42.2899161133244  21.791996813310696  21.601125534020873  120.000000
